<svg xmlns="http://www.w3.org/2000/svg" width="25.013954" height="47.86348" fill="rgb(160, 196, 157)">
   <path d="M 2.0548901,2.1621094 23.703328,23.070312 0.55293711,47.298828 c 0.386178,-0.404589 0.76076999,-0.808902 1.12304699,-1.210937 0.362277,-0.402036 0.713791,-0.801809 1.052734,-1.201172 0.338944,-0.399363 0.666245,-0.798742 0.982422,-1.195313 0.316177,-0.39657 0.620085,-0.791889 0.914063,-1.185547 0.293978,-0.393658 0.577263,-0.785155 0.849609,-1.175781 0.272346,-0.390626 0.533875,-0.780494 0.785156,-1.167969 0.251281,-0.387475 0.491873,-0.772046 0.722657,-1.15625 0.230783,-0.384203 0.451256,-0.767624 0.662109,-1.148437 0.210853,-0.380813 0.412026,-0.759416 0.603516,-1.136719 0.191489,-0.377303 0.374181,-0.75328 0.546875,-1.126953 0.172693,-0.373673 0.335769,-0.745311 0.490234,-1.115234 0.154465,-0.369924 0.300697,-0.737462 0.4375,-1.103516 0.136803,-0.366054 0.265057,-0.729732 0.3847659,-1.091797 0.119708,-0.362065 0.230802,-0.722121 0.333984,-1.080078 0.103182,-0.357957 0.197935,-0.714631 0.285156,-1.068359 0.08722,-0.353729 0.166453,-0.705307 0.238281,-1.054688 0.07183,-0.349381 0.136357,-0.696102 0.19336,-1.041016 0.057,-0.344913 0.105693,-0.687017 0.148437,-1.027343 0.04275,-0.340327 0.07837,-0.680005 0.107422,-1.015625 0.02905,-0.33562 0.05243,-0.667254 0.06836,-0.998047 0.01593,-0.330794 0.02592,-0.660481 0.0293,-0.986328 0.0034,-0.325848 8.05e-4,-0.647968 -0.0078,-0.96875 -0.0086,-0.320782 -0.02488,-0.639482 -0.04492,-0.955078 -0.02004,-0.315597 -0.04528,-0.629162 -0.07617,-0.939454 -0.0309,-0.310291 -0.06624,-0.617007 -0.107422,-0.921875 -0.04118,-0.304867 -0.08777,-0.606926 -0.138672,-0.90625 -0.0509,-0.299323 -0.105958,-0.596965 -0.166015,-0.890625 -0.06006,-0.293659 -0.124716,-0.583217 -0.19336,-0.871093 -0.06864,-0.287877 -0.142087,-0.573496 -0.21875,-0.855469 -0.07666,-0.281973 -0.156119,-0.56194 -0.240234,-0.837891 C 10.150352,15.313333 9.9663421,14.77514 9.7717071,14.248047 9.5770721,13.720954 9.3710221,13.206406 9.1545201,12.705078 8.9380171,12.20375 8.7125701,11.71484 8.4787381,11.240234 8.2449061,10.765629 8.0027061,10.304348 7.7560821,9.8574219 7.5094581,9.4104959 7.2570541,8.9788364 7.0021761,8.5605469 6.7472971,8.1422574 6.4892871,7.7383053 6.2306921,7.3496094 5.9720961,6.9609135 5.7130761,6.5866608 5.4553011,6.2285156 5.1975261,5.8703704 4.9420921,5.5278094 4.6896761,5.2011719 4.4372591,4.8745344 4.1880561,4.5637039 3.9455351,4.2695312 3.7029951,3.9753586 3.4665711,3.6982508 3.2384841,3.4375 3.0103971,3.1767492 2.7913501,2.9334032 2.5822341,2.7070313 2.3834381,2.4918311 2.2325421,2.3453965 2.0548901,2.1621094 Z"/>
</svg>
